# xmcd
#
# Track frame offsets:
#	150
#	11577
#	23372
#	38357
#	52477
#	76987
#	91372
#	106077
#	117635
#	133777
#	158492
#	171837
#	182852
#	199792
#	210212
#
# Disc length: 2985 seconds
#
# Revision: 3
# Processed by: cddbd v1.5.2PL0 Copyright (c) Steve Scherf et al.
# Submitted via: audiograbber 1.83.01
#
DISCID=b90ba70f
DTITLE=Anthony Warlow - Back In The Swing
DYEAR=1993
DGENRE=Jazz
TTITLE0=Desert Song (Blue Heaven)
TTITLE1=You Do Something To Me
TTITLE2=Don't Get Around Much Anymore
TTITLE3=Skylark
TTITLE4=Autumn Leaves
TTITLE5=Amlost Like Being In Love/This Can't Be Love
TTITLE6=Smile
TTITLE7=Night And Day
TTITLE8=Moonglow/Picnic
TTITLE9=Stardust
TTITLE10=I've Got A Crush On You
TTITLE11=L.O.V.E.
TTITLE12=Laura
TTITLE13=Orange Coloured Sky
TTITLE14=Without A Song
EXTD=
EXTT0=
EXTT1=
EXTT2=
EXTT3=
EXTT4=
EXTT5=
EXTT6=
EXTT7=
EXTT8=
EXTT9=
EXTT10=
EXTT11=
EXTT12=\n
EXTT13=
EXTT14=
PLAYORDER=
